<?xml version="1.0" standalone="no"?>
<!DOCTYPE svg PUBLIC "-//W3C//DTD SVG 20010904//EN"
 "http://www.w3.org/TR/2001/REC-SVG-20010904/DTD/svg10.dtd">
<svg version="1.0" xmlns="http://www.w3.org/2000/svg"
 width="50.000000pt" height="25.000000pt" viewBox="0 0 50.000000 25.000000"
 preserveAspectRatio="xMidYMid meet">
<metadata>
Created by potrace 1.16, written by Peter Selinger 2001-2019
</metadata>
<g transform="translate(0.000000,25.000000) scale(0.100000,-0.100000)"
fill="#000000" stroke="none">
<path d="M275 243 c-44 -4 -133 -30 -151 -45 -7 -5 -31 -14 -55 -21 -51 -15
-69 -42 -69 -105 0 -32 4 -44 17 -48 10 -3 26 -10 35 -15 24 -12 105 -12 113
1 8 13 162 13 170 0 3 -5 26 -10 51 -10 33 0 54 7 80 26 30 24 34 32 34 74 0
60 -24 118 -53 129 -29 11 -122 18 -172 14z"/>
</g>
</svg>
