<?xml version="1.0" standalone="no"?>
<!DOCTYPE svg PUBLIC "-//W3C//DTD SVG 20010904//EN"
 "http://www.w3.org/TR/2001/REC-SVG-20010904/DTD/svg10.dtd">
<svg version="1.0" xmlns="http://www.w3.org/2000/svg"
 width="1280.000000pt" height="640.000000pt" viewBox="0 0 1280.000000 640.000000"
 preserveAspectRatio="xMidYMid meet">
<metadata>
Created by potrace 1.15, written by Peter Selinger 2001-2017
</metadata>
<g transform="translate(0.000000,640.000000) scale(0.100000,-0.100000)"
fill="#000000" stroke="none">
<path d="M8230 5730 c0 -7 -137 -10 -411 -10 -361 0 -413 -2 -423 -16 -6 -8
-29 -19 -51 -24 -22 -5 -259 -10 -527 -10 -319 0 -488 -3 -488 -10 0 -6 -97
-10 -271 -10 l-271 0 7 -22 c4 -13 13 -50 22 -83 8 -33 19 -63 24 -66 6 -4 8
-22 3 -45 -5 -31 -21 -52 -76 -105 -45 -42 -69 -71 -67 -82 2 -10 38 -46 79
-80 41 -35 75 -68 74 -75 -1 -7 -2 -148 -2 -313 l-2 -302 -67 6 c-38 3 -84 13
-103 23 -30 16 -62 18 -225 19 -190 0 -190 0 -193 -22 l-3 -23 -520 0 c-339 0
-519 -3 -519 -10 0 -7 -381 -10 -1124 -10 -955 0 -1125 2 -1129 14 -7 18 -92
36 -173 36 -57 0 -67 3 -71 20 -10 36 -21 21 -32 -43 -6 -35 -11 -66 -11 -69
0 -3 27 -6 59 -5 43 0 69 -6 96 -21 20 -12 48 -22 62 -22 25 0 25 -1 18 -47
-4 -27 -10 -86 -14 -133 -6 -84 -6 -85 -34 -88 -16 -2 -42 1 -59 7 -18 6 -63
14 -102 17 -39 4 -77 11 -84 17 -16 12 -15 46 4 132 31 143 30 133 6 112 -29
-26 -58 -93 -66 -151 -3 -27 -8 -51 -10 -53 -2 -2 -24 6 -50 17 -26 11 -51 20
-56 20 -4 0 -11 -26 -15 -58 -3 -32 -10 -63 -13 -69 -5 -9 -28 -8 -82 3 -72
13 -74 13 -98 -9 -13 -12 -29 -31 -35 -42 -11 -21 -36 -377 -36 -537 -1 -53 4
-108 10 -121 16 -36 -6 -54 -162 -129 -130 -63 -137 -69 -235 -169 -95 -98
-132 -153 -159 -239 -14 -43 48 -54 117 -20 23 11 51 20 61 20 11 0 25 7 31
15 6 8 29 17 52 21 l40 6 11 -59 c14 -75 4 -100 -78 -195 -34 -40 -82 -104
-107 -142 -25 -39 -49 -72 -54 -74 -4 -2 -8 -13 -8 -24 0 -11 -16 -42 -35 -69
-20 -26 -43 -68 -51 -93 -22 -64 -56 -89 -153 -111 -45 -10 -84 -22 -87 -27
-3 -4 -43 -8 -90 -8 -46 0 -84 -4 -84 -9 0 -4 -33 -11 -72 -15 -40 -4 -79 -12
-86 -19 -19 -19 -32 -118 -32 -242 l0 -110 101 -24 c113 -27 110 -28 130 43 6
21 17 45 24 53 13 13 160 32 251 33 l41 0 6 -92 c3 -51 15 -124 27 -163 28
-87 76 -197 94 -210 7 -6 38 -62 69 -125 51 -108 61 -122 151 -208 145 -138
187 -166 351 -232 168 -68 234 -80 430 -80 133 0 258 13 350 36 55 14 241 94
340 145 127 67 184 103 217 136 73 76 174 189 196 220 35 49 182 331 182 348
0 13 29 15 215 15 172 0 215 3 215 13 0 8 10 23 23 35 23 22 27 22 409 22
l386 0 105 -35 c57 -19 124 -35 148 -35 24 0 66 -7 94 -15 27 -9 103 -20 170
-25 179 -15 301 -30 384 -46 59 -12 97 -13 195 -4 141 12 1398 -3 1536 -19 47
-5 160 -10 252 -10 135 -1 169 2 182 14 13 13 110 15 755 15 487 0 749 -4 767
-10 15 -6 70 -14 122 -17 78 -5 97 -3 106 9 26 35 126 49 163 23 11 -8 54 -77
94 -152 71 -135 75 -141 208 -271 158 -154 208 -190 345 -248 56 -23 121 -54
146 -68 27 -15 61 -26 85 -26 22 0 65 -10 95 -21 30 -11 78 -26 105 -34 54
-16 235 -21 235 -6 0 4 30 11 68 15 127 13 278 55 330 92 26 18 79 53 117 76
77 46 242 200 312 291 24 31 60 92 79 135 19 42 41 88 49 102 8 14 22 39 31
57 19 36 57 53 115 53 20 0 39 5 41 10 3 11 107 25 308 39 100 7 157 17 218
37 45 15 82 30 82 33 0 3 -11 41 -24 84 l-24 77 87 0 c82 0 91 -2 145 -35 32
-19 61 -35 65 -35 3 0 23 -11 43 -25 28 -19 38 -34 43 -64 8 -50 33 -72 89
-78 36 -4 47 -2 52 10 3 9 21 21 40 27 l34 12 0 126 c0 136 -9 171 -35 138 -8
-11 -15 -37 -15 -58 0 -36 -2 -38 -32 -38 -18 0 -60 -6 -94 -13 -93 -20 -104
-11 -104 79 l0 72 94 4 c52 1 98 6 102 11 24 23 -60 43 -227 53 l-109 7 -55
-37 c-53 -35 -57 -36 -147 -36 l-93 0 -32 48 c-18 26 -33 56 -33 67 0 54 123
209 223 282 29 21 53 41 55 45 2 5 58 8 123 8 l120 0 -3 37 c-3 35 -5 37 -69
59 -46 15 -137 29 -293 45 -153 16 -226 27 -226 35 0 16 -25 25 -90 33 l-55 6
-3 152 -3 152 41 12 c22 7 40 14 40 17 0 2 -16 22 -35 43 -19 22 -35 44 -35
50 0 12 60 71 98 97 13 8 51 18 85 21 62 6 62 6 60 36 -1 17 -4 50 -5 75 l-3
45 -80 0 -80 0 -5 -65 -5 -65 -62 -3 c-70 -3 -66 1 -77 -96 -4 -34 -1 -58 10
-82 29 -60 15 -145 -41 -253 -46 -88 -84 -130 -93 -101 -3 7 -19 41 -36 76
l-32 63 17 73 c10 41 41 127 69 192 28 65 61 157 72 205 11 47 35 140 54 206
40 141 60 263 74 435 5 69 16 159 25 200 10 47 14 95 10 130 -14 126 -17 475
-4 532 16 80 18 260 2 265 -9 3 -13 27 -13 74 0 39 -4 69 -10 69 -6 0 -10 29
-10 68 0 55 -4 71 -20 85 -11 9 -20 26 -20 38 0 12 -8 23 -19 26 -12 3 -23 17
-26 35 -4 16 -14 32 -23 35 -10 4 -43 30 -75 60 -99 91 -246 148 -457 178
-176 25 -418 45 -551 45 -110 0 -133 3 -175 23 l-49 22 -1092 3 c-742 2 -1093
-1 -1093 -8z m-307 -569 c7 -7 12 -114 15 -308 4 -289 5 -299 28 -345 28 -55
32 -128 9 -180 -24 -58 -27 -58 -994 -58 l-865 0 -23 22 -23 21 0 417 0 417
283 8 c929 24 1550 26 1570 6z m2067 -10 c6 -13 10 -148 10 -373 0 -387 -7
-450 -48 -456 -18 -3 -22 1 -22 26 0 37 -18 92 -39 116 -32 37 -163 8 -226
-50 -23 -21 -26 -31 -24 -72 l3 -47 -497 -3 c-363 -1 -497 -5 -497 -14 0 -14
-229 -5 -259 11 -49 27 -51 44 -51 439 l0 369 25 23 c23 22 27 22 83 10 51
-10 63 -10 90 4 24 12 62 16 167 16 83 0 135 4 135 10 0 7 197 10 570 10 553
0 570 -1 580 -19z m961 -5 c25 -9 61 -33 80 -52 l34 -35 0 -297 c-1 -203 -5
-310 -13 -339 -9 -29 -28 -56 -63 -87 l-51 -46 -278 0 -277 0 -26 68 -27 67 0
374 0 373 288 -4 c239 -4 295 -7 333 -22z"/>
<path d="M6190 4761 c0 -10 16 -42 35 -71 25 -38 35 -63 35 -91 0 -50 41 -99
66 -78 11 9 23 9 53 0 49 -14 71 -14 71 0 0 15 -75 105 -159 192 -66 67 -101
84 -101 48z"/>
<path d="M6430 4455 c0 -3 8 -18 18 -32 10 -17 17 -46 17 -77 0 -55 11 -64 62
-51 21 5 24 11 21 35 -3 17 -3 30 0 30 2 0 24 -16 48 -36 24 -20 44 -33 44
-30 0 25 -35 78 -78 119 -44 40 -57 47 -92 47 -22 0 -40 -2 -40 -5z"/>
</g>
</svg>
